<?xml version="1.0" standalone="no"?>
<!DOCTYPE svg PUBLIC "-//W3C//DTD SVG 20010904//EN"
 "http://www.w3.org/TR/2001/REC-SVG-20010904/DTD/svg10.dtd">
<svg version="1.0" xmlns="http://www.w3.org/2000/svg"
 width="260.000000pt" height="260.000000pt" viewBox="0 0 260.000000 260.000000"
 preserveAspectRatio="xMidYMid meet">
<metadata>
Created by potrace 1.11, written by Peter Selinger 2001-2013
</metadata>
<g transform="translate(0.000000,260.000000) scale(0.100000,-0.100000)"
fill="#000000" stroke="none">
<path d="M1107 2589 c-435 -48 -741 -249 -848 -558 -29 -82 -34 -122 -34 -266
1 -107 5 -143 24 -205 62 -201 197 -346 406 -438 105 -45 158 -59 410 -103
127 -22 277 -48 335 -58 156 -28 225 -62 256 -126 17 -37 12 -83 -12 -121 -20
-30 -100 -70 -167 -84 -203 -41 -433 5 -534 108 -36 37 -83 123 -83 153 0 9
-6 20 -12 25 -7 5 -173 9 -368 9 l-355 0 2 -35 c15 -204 115 -424 257 -565
149 -147 377 -256 611 -290 22 -4 47 -8 55 -10 81 -22 451 -22 565 -1 11 2 40
7 65 11 25 3 86 17 137 31 275 73 486 223 583 414 23 45 72 180 65 180 -2 0 1
15 6 33 19 63 13 241 -12 342 -43 176 -184 337 -375 429 -64 31 -142 61 -184
72 -8 2 -40 10 -70 18 -49 14 -219 45 -325 61 -38 5 -85 13 -130 21 -11 2 -49
9 -85 14 -172 28 -262 84 -277 173 -18 115 84 187 275 193 222 8 372 -60 422
-193 11 -30 18 -59 15 -64 -4 -5 4 -9 17 -10 23 0 683 0 705 1 22 0 -1 145
-43 264 -64 184 -221 353 -414 443 -74 35 -240 96 -240 88 0 -3 -12 0 -26 5
-92 35 -449 58 -617 39z"/>
</g>
</svg>
